G04 #@! TF.GenerationSoftware,KiCad,Pcbnew,8.0.7-1.fc41*
G04 #@! TF.CreationDate,2024-12-22T23:08:08-05:00*
G04 #@! TF.ProjectId,GPS_Tracker_BoardandSchematic,4750535f-5472-4616-936b-65725f426f61,rev?*
G04 #@! TF.SameCoordinates,Original*
G04 #@! TF.FileFunction,Copper,L1,Top*
G04 #@! TF.FilePolarity,Positive*
%FSLAX46Y46*%
G04 Gerber Fmt 4.6, Leading zero omitted, Abs format (unit mm)*
G04 Created by KiCad (PCBNEW 8.0.7-1.fc41) date 2024-12-22 23:08:08*
%MOMM*%
%LPD*%
G01*
G04 APERTURE LIST*
G04 Aperture macros list*
%AMRoundRect*
0 Rectangle with rounded corners*
0 $1 Rounding radius*
0 $2 $3 $4 $5 $6 $7 $8 $9 X,Y pos of 4 corners*
0 Add a 4 corners polygon primitive as box body*
4,1,4,$2,$3,$4,$5,$6,$7,$8,$9,$2,$3,0*
0 Add four circle primitives for the rounded corners*
1,1,$1+$1,$2,$3*
1,1,$1+$1,$4,$5*
1,1,$1+$1,$6,$7*
1,1,$1+$1,$8,$9*
0 Add four rect primitives between the rounded corners*
20,1,$1+$1,$2,$3,$4,$5,0*
20,1,$1+$1,$4,$5,$6,$7,0*
20,1,$1+$1,$6,$7,$8,$9,0*
20,1,$1+$1,$8,$9,$2,$3,0*%
G04 Aperture macros list end*
G04 #@! TA.AperFunction,ComponentPad*
%ADD10R,1.700000X1.700000*%
G04 #@! TD*
G04 #@! TA.AperFunction,ComponentPad*
%ADD11O,1.700000X1.700000*%
G04 #@! TD*
G04 #@! TA.AperFunction,SMDPad,CuDef*
%ADD12O,1.600000X0.600000*%
G04 #@! TD*
G04 #@! TA.AperFunction,SMDPad,CuDef*
%ADD13O,0.600000X1.600000*%
G04 #@! TD*
G04 #@! TA.AperFunction,ComponentPad*
%ADD14C,0.700000*%
G04 #@! TD*
G04 #@! TA.AperFunction,ComponentPad*
%ADD15O,0.900000X2.400000*%
G04 #@! TD*
G04 #@! TA.AperFunction,ComponentPad*
%ADD16O,0.900000X1.700000*%
G04 #@! TD*
G04 #@! TA.AperFunction,ComponentPad*
%ADD17R,0.850000X0.850000*%
G04 #@! TD*
G04 #@! TA.AperFunction,ComponentPad*
%ADD18O,0.850000X0.850000*%
G04 #@! TD*
G04 #@! TA.AperFunction,SMDPad,CuDef*
%ADD19RoundRect,0.100000X-0.637500X-0.100000X0.637500X-0.100000X0.637500X0.100000X-0.637500X0.100000X0*%
G04 #@! TD*
G04 #@! TA.AperFunction,SMDPad,CuDef*
%ADD20RoundRect,0.250000X-0.350000X-0.650000X0.350000X-0.650000X0.350000X0.650000X-0.350000X0.650000X0*%
G04 #@! TD*
G04 #@! TA.AperFunction,SMDPad,CuDef*
%ADD21R,2.000000X0.600000*%
G04 #@! TD*
G04 #@! TA.AperFunction,SMDPad,CuDef*
%ADD22R,3.200000X2.300000*%
G04 #@! TD*
G04 #@! TA.AperFunction,SMDPad,CuDef*
%ADD23R,1.800000X1.500000*%
G04 #@! TD*
G04 #@! TA.AperFunction,SMDPad,CuDef*
%ADD24R,1.500000X1.800000*%
G04 #@! TD*
G04 #@! TA.AperFunction,SMDPad,CuDef*
%ADD25RoundRect,0.250000X-0.250000X-0.500000X0.250000X-0.500000X0.250000X0.500000X-0.250000X0.500000X0*%
G04 #@! TD*
G04 #@! TA.AperFunction,SMDPad,CuDef*
%ADD26R,1.800000X0.650000*%
G04 #@! TD*
G04 #@! TA.AperFunction,ViaPad*
%ADD27C,0.900000*%
G04 #@! TD*
G04 #@! TA.AperFunction,Conductor*
%ADD28C,0.200000*%
G04 #@! TD*
G04 APERTURE END LIST*
D10*
X242520000Y-71000000D03*
D11*
X242520000Y-68460000D03*
X239980000Y-71000000D03*
X239980000Y-68460000D03*
X237440000Y-71000000D03*
X237440000Y-68460000D03*
X234900000Y-71000000D03*
X234900000Y-68460000D03*
X232360000Y-71000000D03*
X232360000Y-68460000D03*
X229820000Y-71000000D03*
X229820000Y-68460000D03*
X227280000Y-71000000D03*
X227280000Y-68460000D03*
X224740000Y-71000000D03*
X224740000Y-68460000D03*
X222200000Y-71000000D03*
X222200000Y-68460000D03*
X219660000Y-71000000D03*
X219660000Y-68460000D03*
X217120000Y-71000000D03*
X217120000Y-68460000D03*
X214580000Y-71000000D03*
X214580000Y-68460000D03*
X212040000Y-71000000D03*
X212040000Y-68460000D03*
X209500000Y-71000000D03*
X209500000Y-68460000D03*
X206960000Y-71000000D03*
X206960000Y-68460000D03*
X204420000Y-71000000D03*
X204420000Y-68460000D03*
X201880000Y-71000000D03*
X201880000Y-68460000D03*
X199340000Y-71000000D03*
X199340000Y-68460000D03*
X196800000Y-71000000D03*
X196800000Y-68460000D03*
X194260000Y-71000000D03*
X194260000Y-68460000D03*
D12*
X283500000Y-66500000D03*
X283500000Y-67600000D03*
X283500000Y-68700000D03*
X283500000Y-69800000D03*
X283500000Y-70900000D03*
X283500000Y-72000000D03*
X283500000Y-73100000D03*
X283500000Y-74200000D03*
X283500000Y-75300000D03*
X283500000Y-76400000D03*
X283500000Y-77500000D03*
X283500000Y-78600000D03*
D13*
X286950000Y-81350000D03*
X288050000Y-81350000D03*
X289150000Y-81350000D03*
X290250000Y-81350000D03*
X291350000Y-81350000D03*
X292450000Y-81350000D03*
X293550000Y-81350000D03*
X294650000Y-81350000D03*
X295750000Y-81350000D03*
D12*
X299200000Y-78600000D03*
X299200000Y-77500000D03*
X299200000Y-76400000D03*
X299200000Y-75300000D03*
X299200000Y-74200000D03*
X299200000Y-73100000D03*
X299200000Y-72000000D03*
X299200000Y-70900000D03*
X299200000Y-69800000D03*
X299200000Y-68700000D03*
X299200000Y-67600000D03*
X299200000Y-66500000D03*
D13*
X295750000Y-63750000D03*
X294650000Y-63750000D03*
X293550000Y-63750000D03*
X292450000Y-63750000D03*
X291350000Y-63750000D03*
X290250000Y-63750000D03*
X289150000Y-63750000D03*
X288050000Y-63750000D03*
X286950000Y-63750000D03*
D14*
X355525000Y-81975000D03*
X356375000Y-81975000D03*
X357225000Y-81975000D03*
X358075000Y-81975000D03*
X358925000Y-81975000D03*
X359775000Y-81975000D03*
X360625000Y-81975000D03*
X361475000Y-81975000D03*
X361475000Y-83325000D03*
X360625000Y-83325000D03*
X359775000Y-83325000D03*
X358925000Y-83325000D03*
X358075000Y-83325000D03*
X357225000Y-83325000D03*
X356375000Y-83325000D03*
X355525000Y-83325000D03*
D15*
X354175000Y-82955000D03*
D16*
X354175000Y-86335000D03*
D15*
X362825000Y-82955000D03*
D16*
X362825000Y-86335000D03*
D17*
X212500000Y-109500000D03*
D18*
X212500000Y-108500000D03*
X212500000Y-107500000D03*
X212500000Y-106500000D03*
X212500000Y-105500000D03*
X212500000Y-104500000D03*
X212500000Y-103500000D03*
X212500000Y-102500000D03*
X212500000Y-101500000D03*
X212500000Y-100500000D03*
D19*
X218137500Y-101800000D03*
X218137500Y-102450000D03*
X218137500Y-103100000D03*
X218137500Y-103750000D03*
X218137500Y-104400000D03*
X218137500Y-105050000D03*
X218137500Y-105700000D03*
X218137500Y-106350000D03*
X218137500Y-107000000D03*
X218137500Y-107650000D03*
X223862500Y-107650000D03*
X223862500Y-107000000D03*
X223862500Y-106350000D03*
X223862500Y-105700000D03*
X223862500Y-105050000D03*
X223862500Y-104400000D03*
X223862500Y-103750000D03*
X223862500Y-103100000D03*
X223862500Y-102450000D03*
X223862500Y-101800000D03*
D20*
X338100000Y-124000000D03*
X341000000Y-124000000D03*
D17*
X310550000Y-80780000D03*
D18*
X310550000Y-79780000D03*
X310550000Y-78780000D03*
X310550000Y-77780000D03*
X310550000Y-76780000D03*
X310550000Y-75780000D03*
X310550000Y-74780000D03*
X310550000Y-73780000D03*
X310550000Y-72780000D03*
X310550000Y-71780000D03*
X310550000Y-70780000D03*
X310550000Y-69780000D03*
X310550000Y-68780000D03*
X310550000Y-67780000D03*
X310550000Y-66780000D03*
D21*
X336900000Y-61200000D03*
X345100000Y-61600000D03*
X336900000Y-62000000D03*
X345100000Y-62400000D03*
X336900000Y-62800000D03*
X345100000Y-63200000D03*
X336900000Y-63600000D03*
X345100000Y-64000000D03*
X336900000Y-64400000D03*
X345100000Y-64800000D03*
X336900000Y-65200000D03*
X345100000Y-65600000D03*
X336900000Y-66000000D03*
X345100000Y-66400000D03*
X336900000Y-66800000D03*
X345100000Y-67200000D03*
X336900000Y-70800000D03*
X345100000Y-71200000D03*
X336900000Y-71600000D03*
X345100000Y-72000000D03*
X336900000Y-72400000D03*
X345100000Y-72800000D03*
X336900000Y-73200000D03*
X345100000Y-73600000D03*
X336900000Y-74000000D03*
X345100000Y-74400000D03*
X336900000Y-74800000D03*
X345100000Y-75200000D03*
X336900000Y-75600000D03*
X345100000Y-76000000D03*
X336900000Y-76400000D03*
X345100000Y-76800000D03*
X336900000Y-77200000D03*
X345100000Y-77600000D03*
X336900000Y-78000000D03*
X345100000Y-78400000D03*
X336900000Y-78800000D03*
X345100000Y-79200000D03*
X336900000Y-79600000D03*
X345100000Y-80000000D03*
X336900000Y-80400000D03*
X345100000Y-80800000D03*
X336900000Y-81200000D03*
X345100000Y-81600000D03*
X336900000Y-82000000D03*
X345100000Y-82400000D03*
X336900000Y-82800000D03*
X345100000Y-83200000D03*
X336900000Y-83600000D03*
X345100000Y-84000000D03*
X336900000Y-84400000D03*
X345100000Y-84800000D03*
D22*
X337500000Y-58350000D03*
X337500000Y-87650000D03*
D23*
X276900000Y-102200000D03*
X276900000Y-104100000D03*
X276900000Y-106000000D03*
X276900000Y-107900000D03*
X276900000Y-109800000D03*
D24*
X279700000Y-112600000D03*
X281600000Y-112600000D03*
X283500000Y-112600000D03*
X285400000Y-112600000D03*
X287300000Y-112600000D03*
D23*
X290100000Y-109800000D03*
X290100000Y-107900000D03*
X290100000Y-106000000D03*
X290100000Y-104100000D03*
X290100000Y-102200000D03*
D24*
X287300000Y-99400000D03*
X285400000Y-99400000D03*
X283500000Y-99400000D03*
X281600000Y-99400000D03*
X279700000Y-99400000D03*
D17*
X229500000Y-110000000D03*
D18*
X229500000Y-109000000D03*
X229500000Y-108000000D03*
X229500000Y-107000000D03*
X229500000Y-106000000D03*
X229500000Y-105000000D03*
X229500000Y-104000000D03*
X229500000Y-103000000D03*
X229500000Y-102000000D03*
X229500000Y-101000000D03*
D25*
X325150000Y-101610000D03*
X326420000Y-101610000D03*
X327690000Y-101610000D03*
X328960000Y-101610000D03*
X330230000Y-101610000D03*
X331500000Y-101610000D03*
X332770000Y-101610000D03*
X334040000Y-101610000D03*
X335310000Y-101610000D03*
X336580000Y-101610000D03*
X337850000Y-101610000D03*
X325150000Y-119390000D03*
X326420000Y-119390000D03*
X327690000Y-119390000D03*
X328960000Y-119390000D03*
X330230000Y-119390000D03*
X331500000Y-119390000D03*
X332770000Y-119390000D03*
X334040000Y-119390000D03*
X335310000Y-119390000D03*
X336580000Y-119390000D03*
X337850000Y-119390000D03*
D20*
X324050000Y-96500000D03*
X326950000Y-96500000D03*
D26*
X301200000Y-103190000D03*
X298500000Y-104460000D03*
X301200000Y-105730000D03*
X298500000Y-107000000D03*
D17*
X274050000Y-81280000D03*
D18*
X274050000Y-80280000D03*
X274050000Y-79280000D03*
X274050000Y-78280000D03*
X274050000Y-77280000D03*
X274050000Y-76280000D03*
X274050000Y-75280000D03*
X274050000Y-74280000D03*
X274050000Y-73280000D03*
X274050000Y-72280000D03*
X274050000Y-71280000D03*
X274050000Y-70280000D03*
X274050000Y-69280000D03*
X274050000Y-68280000D03*
X274050000Y-67280000D03*
X274050000Y-66280000D03*
X274050000Y-65280000D03*
D27*
X294010659Y-66250000D03*
X296500000Y-81000000D03*
X282383886Y-74383886D03*
X296319669Y-78819669D03*
X293842225Y-64750001D03*
X283219669Y-86280331D03*
X284500000Y-85000000D03*
X295100003Y-61000000D03*
X271500000Y-59000000D03*
X226500000Y-110750000D03*
X213750000Y-107500000D03*
X215750000Y-107250001D03*
X216000000Y-102550000D03*
X222389828Y-101665258D03*
X213750000Y-104335964D03*
X213645189Y-102104811D03*
X223000000Y-100750000D03*
X226500000Y-101000000D03*
X219509522Y-103498321D03*
X217500000Y-99250000D03*
X216275186Y-105224814D03*
X298000000Y-75500000D03*
X312469669Y-79469669D03*
X299550000Y-67500000D03*
X312850000Y-78000000D03*
X299500000Y-71000000D03*
X291500000Y-81750000D03*
X305000000Y-75500000D03*
X307000000Y-78000000D03*
X305250000Y-81000000D03*
X307500000Y-70000000D03*
X299200000Y-74200000D03*
X283500000Y-79000000D03*
X313000000Y-66500000D03*
X314780331Y-69280331D03*
X312500000Y-68000000D03*
X298000000Y-76600003D03*
X302094669Y-83094669D03*
X307500000Y-80500000D03*
X271000000Y-74500000D03*
X271500000Y-76030000D03*
X281286244Y-80274418D03*
X281250000Y-77500000D03*
X296200006Y-61000000D03*
X270000000Y-59000000D03*
X277250000Y-71500000D03*
X275500000Y-73500000D03*
X281606067Y-73606067D03*
X276500000Y-66000000D03*
X275750000Y-71844669D03*
X278654031Y-76558103D03*
X290000000Y-61000000D03*
X267500000Y-73000000D03*
X292000000Y-60782843D03*
X263186826Y-65186826D03*
X294000000Y-61000000D03*
D28*
X280550000Y-88950000D02*
X283219669Y-86280331D01*
X287300000Y-99400000D02*
X287300000Y-99750000D01*
X293842225Y-64042225D02*
X293550000Y-63750000D01*
X280550000Y-100600000D02*
X280550000Y-88950000D01*
X292450000Y-63750000D02*
X294750000Y-61450000D01*
X287300000Y-99750000D02*
X286450000Y-100600000D01*
X294260659Y-66500000D02*
X294010659Y-66250000D01*
X293842225Y-64750001D02*
X293842225Y-64042225D01*
X299200000Y-73100000D02*
X298700000Y-73100000D01*
X298700000Y-73100000D02*
X296319669Y-75480331D01*
X296500000Y-81000000D02*
X296100000Y-81000000D01*
X295700000Y-109800000D02*
X298500000Y-107000000D01*
X284500000Y-85000000D02*
X286950000Y-82550000D01*
X290100000Y-109800000D02*
X295700000Y-109800000D01*
X286950000Y-82550000D02*
X286950000Y-81350000D01*
X271500000Y-64331040D02*
X273448960Y-66280000D01*
X296319669Y-75480331D02*
X296319669Y-78819669D01*
X271500000Y-59000000D02*
X271500000Y-64331040D01*
X286450000Y-100600000D02*
X280550000Y-100600000D01*
X294750000Y-61450000D02*
X294750000Y-61350003D01*
X296100000Y-81000000D02*
X295750000Y-81350000D01*
X294750000Y-61350003D02*
X295100003Y-61000000D01*
X273448960Y-66280000D02*
X274050000Y-66280000D01*
X299200000Y-66500000D02*
X294260659Y-66500000D01*
X283500000Y-74200000D02*
X282567772Y-74200000D01*
X282567772Y-74200000D02*
X282383886Y-74383886D01*
X325150000Y-101610000D02*
X325150000Y-97600000D01*
X325150000Y-97600000D02*
X324050000Y-96500000D01*
X338100000Y-124000000D02*
X338100000Y-119640000D01*
X338100000Y-119640000D02*
X337850000Y-119390000D01*
X300930000Y-106000000D02*
X301200000Y-105730000D01*
X290100000Y-106000000D02*
X300930000Y-106000000D01*
X287700000Y-96000000D02*
X285400000Y-98300000D01*
X294010000Y-96000000D02*
X287700000Y-96000000D01*
X301200000Y-103190000D02*
X294010000Y-96000000D01*
X285400000Y-98300000D02*
X285400000Y-99400000D01*
X290100000Y-104100000D02*
X298140000Y-104100000D01*
X298140000Y-104100000D02*
X298500000Y-104460000D01*
X223862500Y-105700000D02*
X228775000Y-105700000D01*
X229474695Y-105000000D02*
X229500000Y-105000000D01*
X228775000Y-105699695D02*
X229474695Y-105000000D01*
X228775000Y-105700000D02*
X228775000Y-105699695D01*
X223862500Y-104400000D02*
X228074695Y-104400000D01*
X228074695Y-104400000D02*
X229474695Y-103000000D01*
X229474695Y-103000000D02*
X229500000Y-103000000D01*
X215800000Y-105700000D02*
X214500000Y-107000000D01*
X214500000Y-108500000D02*
X216500000Y-110500000D01*
X226500000Y-110500000D02*
X226500000Y-110750000D01*
X216500000Y-110500000D02*
X226500000Y-110500000D01*
X218137500Y-105700000D02*
X215800000Y-105700000D01*
X214500000Y-107000000D02*
X214500000Y-108500000D01*
X223862500Y-107000000D02*
X229500000Y-107000000D01*
X223862500Y-107650000D02*
X229150000Y-107650000D01*
X229150000Y-107650000D02*
X229500000Y-108000000D01*
X223862500Y-103750000D02*
X227724695Y-103750000D01*
X229474695Y-102000000D02*
X229500000Y-102000000D01*
X227724695Y-103750000D02*
X229474695Y-102000000D01*
X228424695Y-105050000D02*
X229474695Y-104000000D01*
X223862500Y-105050000D02*
X228424695Y-105050000D01*
X229474695Y-104000000D02*
X229500000Y-104000000D01*
X223862500Y-106350000D02*
X229150000Y-106350000D01*
X229150000Y-106350000D02*
X229500000Y-106000000D01*
X215523615Y-108957929D02*
X216565686Y-110000000D01*
X217481544Y-107000000D02*
X215523615Y-108957929D01*
X218137500Y-107000000D02*
X217481544Y-107000000D01*
X216565686Y-110000000D02*
X229500000Y-110000000D01*
X218137500Y-107650000D02*
X219487500Y-109000000D01*
X219487500Y-109000000D02*
X229500000Y-109000000D01*
X216990492Y-104400000D02*
X218137500Y-104400000D01*
X213750000Y-106765277D02*
X216000000Y-104515277D01*
X216590492Y-104000000D02*
X216990492Y-104400000D01*
X216000000Y-104000000D02*
X216590492Y-104000000D01*
X213750000Y-107500000D02*
X213750000Y-106765277D01*
X216000000Y-104515277D02*
X216000000Y-104000000D01*
X215225305Y-101800000D02*
X212525305Y-104500000D01*
X212525305Y-104500000D02*
X212500000Y-104500000D01*
X218137500Y-101800000D02*
X215225305Y-101800000D01*
X215750000Y-107250001D02*
X216650001Y-106350000D01*
X216650001Y-106350000D02*
X218137500Y-106350000D01*
X213750000Y-104335964D02*
X214214036Y-104335964D01*
X214214036Y-104335964D02*
X216000000Y-102550000D01*
X222389828Y-101665258D02*
X223727758Y-101665258D01*
X223727758Y-101665258D02*
X223862500Y-101800000D01*
X213645189Y-102104811D02*
X215000000Y-100750000D01*
X215000000Y-100750000D02*
X223000000Y-100750000D01*
X226500000Y-101000000D02*
X225050000Y-102450000D01*
X225050000Y-102450000D02*
X223862500Y-102450000D01*
X213350000Y-106675305D02*
X213350000Y-106084315D01*
X213350000Y-106084315D02*
X215834315Y-103600000D01*
X212800305Y-107225000D02*
X213350000Y-106675305D01*
X212775000Y-107225000D02*
X212800305Y-107225000D01*
X217987500Y-103600000D02*
X218137500Y-103750000D01*
X215834315Y-103600000D02*
X217987500Y-103600000D01*
X212500000Y-107500000D02*
X212775000Y-107225000D01*
X218000000Y-99000000D02*
X217750000Y-99250000D01*
X219111201Y-103100000D02*
X218137500Y-103100000D01*
X211898960Y-106500000D02*
X211775000Y-106376040D01*
X211775000Y-106376040D02*
X211775000Y-99725000D01*
X219509522Y-103498321D02*
X219111201Y-103100000D01*
X212500000Y-99000000D02*
X218000000Y-99000000D01*
X212500000Y-106500000D02*
X211898960Y-106500000D01*
X211775000Y-99725000D02*
X212500000Y-99000000D01*
X217750000Y-99250000D02*
X217500000Y-99250000D01*
X217074806Y-105050000D02*
X218137500Y-105050000D01*
X216800372Y-104775566D02*
X217074806Y-105050000D01*
X213101040Y-101500000D02*
X212500000Y-101500000D01*
X214000000Y-100000000D02*
X214000000Y-100601040D01*
X225900000Y-103100000D02*
X229000000Y-100000000D01*
X214000000Y-100601040D02*
X213101040Y-101500000D01*
X229000000Y-100000000D02*
X214000000Y-100000000D01*
X223862500Y-103100000D02*
X225900000Y-103100000D01*
X309100000Y-86000000D02*
X314000000Y-81100000D01*
X313500000Y-74500000D02*
X312780000Y-73780000D01*
X288050000Y-81350000D02*
X288050000Y-81850000D01*
X314000000Y-74500000D02*
X313500000Y-74500000D01*
X312780000Y-73780000D02*
X310550000Y-73780000D01*
X292200000Y-86000000D02*
X309100000Y-86000000D01*
X288050000Y-81850000D02*
X292200000Y-86000000D01*
X314000000Y-81100000D02*
X314000000Y-74500000D01*
X298000000Y-75500000D02*
X299000000Y-75500000D01*
X299000000Y-75500000D02*
X299200000Y-75300000D01*
X299200000Y-67600000D02*
X299450000Y-67600000D01*
X311159338Y-80780000D02*
X310550000Y-80780000D01*
X312469669Y-79469669D02*
X311159338Y-80780000D01*
X299450000Y-67600000D02*
X299550000Y-67500000D01*
X312850000Y-78000000D02*
X312070000Y-78780000D01*
X299200000Y-70900000D02*
X299400000Y-70900000D01*
X312070000Y-78780000D02*
X310550000Y-78780000D01*
X299400000Y-70900000D02*
X299500000Y-71000000D01*
X288500000Y-59500000D02*
X309500000Y-59500000D01*
X286950000Y-61050000D02*
X288500000Y-59500000D01*
X309500000Y-59500000D02*
X315000000Y-65000000D01*
X315000000Y-68000000D02*
X313220000Y-69780000D01*
X286950000Y-63750000D02*
X286950000Y-61050000D01*
X315000000Y-65000000D02*
X315000000Y-68000000D01*
X313220000Y-69780000D02*
X310550000Y-69780000D01*
X305000000Y-75500000D02*
X305720000Y-74780000D01*
X291350000Y-81350000D02*
X291350000Y-81600000D01*
X305720000Y-74780000D02*
X310550000Y-74780000D01*
X291350000Y-81600000D02*
X291500000Y-81750000D01*
X288050000Y-60515686D02*
X288532843Y-60032843D01*
X312780000Y-68780000D02*
X310550000Y-68780000D01*
X313217157Y-69217157D02*
X312780000Y-68780000D01*
X309032843Y-60032843D02*
X314500000Y-65500000D01*
X314500000Y-67934314D02*
X313217157Y-69217157D01*
X314500000Y-65500000D02*
X314500000Y-67934314D01*
X288532843Y-60032843D02*
X309032843Y-60032843D01*
X288050000Y-63750000D02*
X288050000Y-60515686D01*
X302250000Y-84000000D02*
X305250000Y-81000000D01*
X307000000Y-78000000D02*
X307220000Y-77780000D01*
X292450000Y-81350000D02*
X292450000Y-81598528D01*
X292450000Y-81598528D02*
X294851472Y-84000000D01*
X307220000Y-77780000D02*
X310550000Y-77780000D01*
X294851472Y-84000000D02*
X302250000Y-84000000D01*
X308280000Y-70780000D02*
X310550000Y-70780000D01*
X307500000Y-70000000D02*
X308280000Y-70780000D01*
X283500000Y-78600000D02*
X283500000Y-79000000D01*
X312220000Y-66780000D02*
X310550000Y-66780000D01*
X312500000Y-66500000D02*
X312220000Y-66780000D01*
X313000000Y-66500000D02*
X312500000Y-66500000D01*
X280500000Y-80000000D02*
X280500000Y-82500000D01*
X314500000Y-85500000D02*
X314500000Y-69560662D01*
X280500000Y-82500000D02*
X284500000Y-86500000D01*
X313500000Y-86500000D02*
X314500000Y-85500000D01*
X312500000Y-68000000D02*
X311500000Y-68000000D01*
X314500000Y-69560662D02*
X314780331Y-69280331D01*
X283500000Y-77500000D02*
X283000000Y-77500000D01*
X311500000Y-68000000D02*
X311280000Y-67780000D01*
X283000000Y-77500000D02*
X280500000Y-80000000D01*
X311280000Y-67780000D02*
X310550000Y-67780000D01*
X284500000Y-86500000D02*
X313500000Y-86500000D01*
X313000000Y-76500000D02*
X312720000Y-76780000D01*
X292800000Y-85500000D02*
X307500000Y-85500000D01*
X307500000Y-85500000D02*
X313600000Y-79400000D01*
X313600000Y-76500000D02*
X313000000Y-76500000D01*
X313600000Y-79400000D02*
X313600000Y-76500000D01*
X312720000Y-76780000D02*
X310550000Y-76780000D01*
X289150000Y-81850000D02*
X292800000Y-85500000D01*
X289150000Y-81350000D02*
X289150000Y-81850000D01*
X306000000Y-77500000D02*
X307720000Y-75780000D01*
X290250000Y-81350000D02*
X290250000Y-81850000D01*
X306000000Y-84000000D02*
X306000000Y-77500000D01*
X304900000Y-85100000D02*
X306000000Y-84000000D01*
X293500000Y-85100000D02*
X304900000Y-85100000D01*
X290250000Y-81850000D02*
X293500000Y-85100000D01*
X307720000Y-75780000D02*
X310550000Y-75780000D01*
X298999997Y-76600003D02*
X299200000Y-76400000D01*
X298000000Y-76600003D02*
X298999997Y-76600003D01*
X307500000Y-80500000D02*
X308220000Y-79780000D01*
X294650000Y-81850000D02*
X295894669Y-83094669D01*
X294650000Y-81350000D02*
X294650000Y-81850000D01*
X295894669Y-83094669D02*
X302094669Y-83094669D01*
X308220000Y-79780000D02*
X310550000Y-79780000D01*
X295961826Y-80238174D02*
X281322488Y-80238174D01*
X276745000Y-82005000D02*
X273325000Y-82005000D01*
X271220000Y-74280000D02*
X274050000Y-74280000D01*
X273325000Y-82005000D02*
X271500000Y-80180000D01*
X299200000Y-77500000D02*
X298700000Y-77500000D01*
X298700000Y-77500000D02*
X295961826Y-80238174D01*
X271500000Y-80180000D02*
X271500000Y-76030000D01*
X281250000Y-77500000D02*
X276745000Y-82005000D01*
X281322488Y-80238174D02*
X281286244Y-80274418D01*
X271000000Y-74500000D02*
X271220000Y-74280000D01*
X294650000Y-63750000D02*
X294650000Y-62550006D01*
X270000000Y-59000000D02*
X270000000Y-63831040D01*
X294650000Y-62550006D02*
X296200006Y-61000000D01*
X270000000Y-63831040D02*
X273448960Y-67280000D01*
X273448960Y-67280000D02*
X274050000Y-67280000D01*
X277700000Y-76451472D02*
X277700000Y-77865686D01*
X283251472Y-70900000D02*
X277700000Y-76451472D01*
X283500000Y-70900000D02*
X283251472Y-70900000D01*
X275285686Y-80280000D02*
X274050000Y-80280000D01*
X277700000Y-77865686D02*
X275285686Y-80280000D01*
X275500000Y-75431040D02*
X274651040Y-76280000D01*
X276900000Y-70600000D02*
X276900000Y-71150000D01*
X276900000Y-71150000D02*
X277250000Y-71500000D01*
X279900000Y-67600000D02*
X276900000Y-70600000D01*
X274651040Y-76280000D02*
X274050000Y-76280000D01*
X275500000Y-73500000D02*
X275500000Y-75431040D01*
X283500000Y-67600000D02*
X279900000Y-67600000D01*
X275720000Y-79280000D02*
X274050000Y-79280000D01*
X283000000Y-69800000D02*
X277300000Y-75500000D01*
X277300000Y-75500000D02*
X277300000Y-77700000D01*
X277300000Y-77700000D02*
X275720000Y-79280000D01*
X283500000Y-69800000D02*
X283000000Y-69800000D01*
X276900000Y-77100000D02*
X275720000Y-78280000D01*
X283000000Y-68700000D02*
X276900000Y-74800000D01*
X275720000Y-78280000D02*
X274050000Y-78280000D01*
X283500000Y-68700000D02*
X283000000Y-68700000D01*
X276900000Y-74800000D02*
X276900000Y-77100000D01*
X269062991Y-58250000D02*
X262436826Y-64876165D01*
X300300000Y-77748528D02*
X300300000Y-66251472D01*
X279060661Y-65500000D02*
X271810661Y-58250000D01*
X299548528Y-65500000D02*
X279060661Y-65500000D01*
X262436826Y-68997487D02*
X268719339Y-75280000D01*
X299448528Y-78600000D02*
X300300000Y-77748528D01*
X300300000Y-66251472D02*
X299548528Y-65500000D01*
X262436826Y-64876165D02*
X262436826Y-68997487D01*
X268719339Y-75280000D02*
X274050000Y-75280000D01*
X271810661Y-58250000D02*
X269062991Y-58250000D01*
X299200000Y-78600000D02*
X299448528Y-78600000D01*
X283500000Y-72000000D02*
X283000000Y-72000000D01*
X281606067Y-73393933D02*
X281606067Y-73606067D01*
X276500000Y-66000000D02*
X275780000Y-65280000D01*
X275780000Y-65280000D02*
X274050000Y-65280000D01*
X283000000Y-72000000D02*
X281606067Y-73393933D01*
X283500000Y-75300000D02*
X279912134Y-75300000D01*
X275750000Y-71844669D02*
X275185331Y-71280000D01*
X275185331Y-71280000D02*
X274050000Y-71280000D01*
X279912134Y-75300000D02*
X278654031Y-76558103D01*
X289150000Y-63750000D02*
X289150000Y-61850000D01*
X289150000Y-61850000D02*
X290000000Y-61000000D01*
X278031040Y-65900000D02*
X274651040Y-69280000D01*
X298700000Y-72000000D02*
X292600000Y-65900000D01*
X274651040Y-69280000D02*
X274050000Y-69280000D01*
X299200000Y-72000000D02*
X298700000Y-72000000D01*
X292600000Y-65900000D02*
X278031040Y-65900000D01*
X276500000Y-75431040D02*
X274651040Y-77280000D01*
X283500000Y-66500000D02*
X280000000Y-66500000D01*
X280000000Y-66500000D02*
X276500000Y-70000000D01*
X276500000Y-70000000D02*
X276500000Y-75431040D01*
X274651040Y-77280000D02*
X274050000Y-77280000D01*
X268780000Y-73280000D02*
X274050000Y-73280000D01*
X268500000Y-73000000D02*
X268780000Y-73280000D01*
X290250000Y-62532843D02*
X292000000Y-60782843D01*
X290250000Y-63750000D02*
X290250000Y-62532843D01*
X267500000Y-73000000D02*
X268500000Y-73000000D01*
X291350000Y-63250000D02*
X293600000Y-61000000D01*
X293600000Y-61000000D02*
X294000000Y-61000000D01*
X291350000Y-63750000D02*
X291350000Y-63250000D01*
X263186826Y-65186826D02*
X270280000Y-72280000D01*
X270280000Y-72280000D02*
X274050000Y-72280000D01*
M02*
