G04 #@! TF.GenerationSoftware,KiCad,Pcbnew,8.0.7-1.fc41*
G04 #@! TF.CreationDate,2024-12-22T23:08:08-05:00*
G04 #@! TF.ProjectId,GPS_Tracker_BoardandSchematic,4750535f-5472-4616-936b-65725f426f61,rev?*
G04 #@! TF.SameCoordinates,Original*
G04 #@! TF.FileFunction,Legend,Top*
G04 #@! TF.FilePolarity,Positive*
%FSLAX46Y46*%
G04 Gerber Fmt 4.6, Leading zero omitted, Abs format (unit mm)*
G04 Created by KiCad (PCBNEW 8.0.7-1.fc41) date 2024-12-22 23:08:08*
%MOMM*%
%LPD*%
G01*
G04 APERTURE LIST*
%ADD10C,0.150000*%
%ADD11C,0.120000*%
G04 APERTURE END LIST*
D10*
X242186666Y-72954819D02*
X242186666Y-73669104D01*
X242186666Y-73669104D02*
X242139047Y-73811961D01*
X242139047Y-73811961D02*
X242043809Y-73907200D01*
X242043809Y-73907200D02*
X241900952Y-73954819D01*
X241900952Y-73954819D02*
X241805714Y-73954819D01*
X243186666Y-73954819D02*
X242615238Y-73954819D01*
X242900952Y-73954819D02*
X242900952Y-72954819D01*
X242900952Y-72954819D02*
X242805714Y-73097676D01*
X242805714Y-73097676D02*
X242710476Y-73192914D01*
X242710476Y-73192914D02*
X242615238Y-73240533D01*
X290588095Y-61004819D02*
X290588095Y-61814342D01*
X290588095Y-61814342D02*
X290635714Y-61909580D01*
X290635714Y-61909580D02*
X290683333Y-61957200D01*
X290683333Y-61957200D02*
X290778571Y-62004819D01*
X290778571Y-62004819D02*
X290969047Y-62004819D01*
X290969047Y-62004819D02*
X291064285Y-61957200D01*
X291064285Y-61957200D02*
X291111904Y-61909580D01*
X291111904Y-61909580D02*
X291159523Y-61814342D01*
X291159523Y-61814342D02*
X291159523Y-61004819D01*
X292064285Y-61338152D02*
X292064285Y-62004819D01*
X291826190Y-60957200D02*
X291588095Y-61671485D01*
X291588095Y-61671485D02*
X292207142Y-61671485D01*
X357761905Y-80629819D02*
X357761905Y-79629819D01*
X357761905Y-79629819D02*
X358142857Y-79629819D01*
X358142857Y-79629819D02*
X358238095Y-79677438D01*
X358238095Y-79677438D02*
X358285714Y-79725057D01*
X358285714Y-79725057D02*
X358333333Y-79820295D01*
X358333333Y-79820295D02*
X358333333Y-79963152D01*
X358333333Y-79963152D02*
X358285714Y-80058390D01*
X358285714Y-80058390D02*
X358238095Y-80106009D01*
X358238095Y-80106009D02*
X358142857Y-80153628D01*
X358142857Y-80153628D02*
X357761905Y-80153628D01*
X359285714Y-80629819D02*
X358714286Y-80629819D01*
X359000000Y-80629819D02*
X359000000Y-79629819D01*
X359000000Y-79629819D02*
X358904762Y-79772676D01*
X358904762Y-79772676D02*
X358809524Y-79867914D01*
X358809524Y-79867914D02*
X358714286Y-79915533D01*
X212456666Y-111204819D02*
X212456666Y-111919104D01*
X212456666Y-111919104D02*
X212409047Y-112061961D01*
X212409047Y-112061961D02*
X212313809Y-112157200D01*
X212313809Y-112157200D02*
X212170952Y-112204819D01*
X212170952Y-112204819D02*
X212075714Y-112204819D01*
X213409047Y-111204819D02*
X212932857Y-111204819D01*
X212932857Y-111204819D02*
X212885238Y-111681009D01*
X212885238Y-111681009D02*
X212932857Y-111633390D01*
X212932857Y-111633390D02*
X213028095Y-111585771D01*
X213028095Y-111585771D02*
X213266190Y-111585771D01*
X213266190Y-111585771D02*
X213361428Y-111633390D01*
X213361428Y-111633390D02*
X213409047Y-111681009D01*
X213409047Y-111681009D02*
X213456666Y-111776247D01*
X213456666Y-111776247D02*
X213456666Y-112014342D01*
X213456666Y-112014342D02*
X213409047Y-112109580D01*
X213409047Y-112109580D02*
X213361428Y-112157200D01*
X213361428Y-112157200D02*
X213266190Y-112204819D01*
X213266190Y-112204819D02*
X213028095Y-112204819D01*
X213028095Y-112204819D02*
X212932857Y-112157200D01*
X212932857Y-112157200D02*
X212885238Y-112109580D01*
X220238095Y-99979819D02*
X220238095Y-100789342D01*
X220238095Y-100789342D02*
X220285714Y-100884580D01*
X220285714Y-100884580D02*
X220333333Y-100932200D01*
X220333333Y-100932200D02*
X220428571Y-100979819D01*
X220428571Y-100979819D02*
X220619047Y-100979819D01*
X220619047Y-100979819D02*
X220714285Y-100932200D01*
X220714285Y-100932200D02*
X220761904Y-100884580D01*
X220761904Y-100884580D02*
X220809523Y-100789342D01*
X220809523Y-100789342D02*
X220809523Y-99979819D01*
X221190476Y-99979819D02*
X221809523Y-99979819D01*
X221809523Y-99979819D02*
X221476190Y-100360771D01*
X221476190Y-100360771D02*
X221619047Y-100360771D01*
X221619047Y-100360771D02*
X221714285Y-100408390D01*
X221714285Y-100408390D02*
X221761904Y-100456009D01*
X221761904Y-100456009D02*
X221809523Y-100551247D01*
X221809523Y-100551247D02*
X221809523Y-100789342D01*
X221809523Y-100789342D02*
X221761904Y-100884580D01*
X221761904Y-100884580D02*
X221714285Y-100932200D01*
X221714285Y-100932200D02*
X221619047Y-100979819D01*
X221619047Y-100979819D02*
X221333333Y-100979819D01*
X221333333Y-100979819D02*
X221238095Y-100932200D01*
X221238095Y-100932200D02*
X221190476Y-100884580D01*
X337933333Y-129109104D02*
X338409523Y-129109104D01*
X337838095Y-129394819D02*
X338171428Y-128394819D01*
X338171428Y-128394819D02*
X338504761Y-129394819D01*
X338838095Y-128871009D02*
X339171428Y-128871009D01*
X339314285Y-129394819D02*
X338838095Y-129394819D01*
X338838095Y-129394819D02*
X338838095Y-128394819D01*
X338838095Y-128394819D02*
X339314285Y-128394819D01*
X339695238Y-128490057D02*
X339742857Y-128442438D01*
X339742857Y-128442438D02*
X339838095Y-128394819D01*
X339838095Y-128394819D02*
X340076190Y-128394819D01*
X340076190Y-128394819D02*
X340171428Y-128442438D01*
X340171428Y-128442438D02*
X340219047Y-128490057D01*
X340219047Y-128490057D02*
X340266666Y-128585295D01*
X340266666Y-128585295D02*
X340266666Y-128680533D01*
X340266666Y-128680533D02*
X340219047Y-128823390D01*
X340219047Y-128823390D02*
X339647619Y-129394819D01*
X339647619Y-129394819D02*
X340266666Y-129394819D01*
X310506666Y-82484819D02*
X310506666Y-83199104D01*
X310506666Y-83199104D02*
X310459047Y-83341961D01*
X310459047Y-83341961D02*
X310363809Y-83437200D01*
X310363809Y-83437200D02*
X310220952Y-83484819D01*
X310220952Y-83484819D02*
X310125714Y-83484819D01*
X311411428Y-82484819D02*
X311220952Y-82484819D01*
X311220952Y-82484819D02*
X311125714Y-82532438D01*
X311125714Y-82532438D02*
X311078095Y-82580057D01*
X311078095Y-82580057D02*
X310982857Y-82722914D01*
X310982857Y-82722914D02*
X310935238Y-82913390D01*
X310935238Y-82913390D02*
X310935238Y-83294342D01*
X310935238Y-83294342D02*
X310982857Y-83389580D01*
X310982857Y-83389580D02*
X311030476Y-83437200D01*
X311030476Y-83437200D02*
X311125714Y-83484819D01*
X311125714Y-83484819D02*
X311316190Y-83484819D01*
X311316190Y-83484819D02*
X311411428Y-83437200D01*
X311411428Y-83437200D02*
X311459047Y-83389580D01*
X311459047Y-83389580D02*
X311506666Y-83294342D01*
X311506666Y-83294342D02*
X311506666Y-83056247D01*
X311506666Y-83056247D02*
X311459047Y-82961009D01*
X311459047Y-82961009D02*
X311411428Y-82913390D01*
X311411428Y-82913390D02*
X311316190Y-82865771D01*
X311316190Y-82865771D02*
X311125714Y-82865771D01*
X311125714Y-82865771D02*
X311030476Y-82913390D01*
X311030476Y-82913390D02*
X310982857Y-82961009D01*
X310982857Y-82961009D02*
X310935238Y-83056247D01*
X334104819Y-60833333D02*
X334819104Y-60833333D01*
X334819104Y-60833333D02*
X334961961Y-60880952D01*
X334961961Y-60880952D02*
X335057200Y-60976190D01*
X335057200Y-60976190D02*
X335104819Y-61119047D01*
X335104819Y-61119047D02*
X335104819Y-61214285D01*
X334200057Y-60404761D02*
X334152438Y-60357142D01*
X334152438Y-60357142D02*
X334104819Y-60261904D01*
X334104819Y-60261904D02*
X334104819Y-60023809D01*
X334104819Y-60023809D02*
X334152438Y-59928571D01*
X334152438Y-59928571D02*
X334200057Y-59880952D01*
X334200057Y-59880952D02*
X334295295Y-59833333D01*
X334295295Y-59833333D02*
X334390533Y-59833333D01*
X334390533Y-59833333D02*
X334533390Y-59880952D01*
X334533390Y-59880952D02*
X335104819Y-60452380D01*
X335104819Y-60452380D02*
X335104819Y-59833333D01*
X282738095Y-96704819D02*
X282738095Y-97514342D01*
X282738095Y-97514342D02*
X282785714Y-97609580D01*
X282785714Y-97609580D02*
X282833333Y-97657200D01*
X282833333Y-97657200D02*
X282928571Y-97704819D01*
X282928571Y-97704819D02*
X283119047Y-97704819D01*
X283119047Y-97704819D02*
X283214285Y-97657200D01*
X283214285Y-97657200D02*
X283261904Y-97609580D01*
X283261904Y-97609580D02*
X283309523Y-97514342D01*
X283309523Y-97514342D02*
X283309523Y-96704819D01*
X283738095Y-96800057D02*
X283785714Y-96752438D01*
X283785714Y-96752438D02*
X283880952Y-96704819D01*
X283880952Y-96704819D02*
X284119047Y-96704819D01*
X284119047Y-96704819D02*
X284214285Y-96752438D01*
X284214285Y-96752438D02*
X284261904Y-96800057D01*
X284261904Y-96800057D02*
X284309523Y-96895295D01*
X284309523Y-96895295D02*
X284309523Y-96990533D01*
X284309523Y-96990533D02*
X284261904Y-97133390D01*
X284261904Y-97133390D02*
X283690476Y-97704819D01*
X283690476Y-97704819D02*
X284309523Y-97704819D01*
X229456666Y-111704819D02*
X229456666Y-112419104D01*
X229456666Y-112419104D02*
X229409047Y-112561961D01*
X229409047Y-112561961D02*
X229313809Y-112657200D01*
X229313809Y-112657200D02*
X229170952Y-112704819D01*
X229170952Y-112704819D02*
X229075714Y-112704819D01*
X230361428Y-112038152D02*
X230361428Y-112704819D01*
X230123333Y-111657200D02*
X229885238Y-112371485D01*
X229885238Y-112371485D02*
X230504285Y-112371485D01*
X330738095Y-99286819D02*
X330738095Y-100096342D01*
X330738095Y-100096342D02*
X330785714Y-100191580D01*
X330785714Y-100191580D02*
X330833333Y-100239200D01*
X330833333Y-100239200D02*
X330928571Y-100286819D01*
X330928571Y-100286819D02*
X331119047Y-100286819D01*
X331119047Y-100286819D02*
X331214285Y-100239200D01*
X331214285Y-100239200D02*
X331261904Y-100191580D01*
X331261904Y-100191580D02*
X331309523Y-100096342D01*
X331309523Y-100096342D02*
X331309523Y-99286819D01*
X332261904Y-99286819D02*
X331785714Y-99286819D01*
X331785714Y-99286819D02*
X331738095Y-99763009D01*
X331738095Y-99763009D02*
X331785714Y-99715390D01*
X331785714Y-99715390D02*
X331880952Y-99667771D01*
X331880952Y-99667771D02*
X332119047Y-99667771D01*
X332119047Y-99667771D02*
X332214285Y-99715390D01*
X332214285Y-99715390D02*
X332261904Y-99763009D01*
X332261904Y-99763009D02*
X332309523Y-99858247D01*
X332309523Y-99858247D02*
X332309523Y-100096342D01*
X332309523Y-100096342D02*
X332261904Y-100191580D01*
X332261904Y-100191580D02*
X332214285Y-100239200D01*
X332214285Y-100239200D02*
X332119047Y-100286819D01*
X332119047Y-100286819D02*
X331880952Y-100286819D01*
X331880952Y-100286819D02*
X331785714Y-100239200D01*
X331785714Y-100239200D02*
X331738095Y-100191580D01*
X324333333Y-94819104D02*
X324809523Y-94819104D01*
X324238095Y-95104819D02*
X324571428Y-94104819D01*
X324571428Y-94104819D02*
X324904761Y-95104819D01*
X325238095Y-94581009D02*
X325571428Y-94581009D01*
X325714285Y-95104819D02*
X325238095Y-95104819D01*
X325238095Y-95104819D02*
X325238095Y-94104819D01*
X325238095Y-94104819D02*
X325714285Y-94104819D01*
X326666666Y-95104819D02*
X326095238Y-95104819D01*
X326380952Y-95104819D02*
X326380952Y-94104819D01*
X326380952Y-94104819D02*
X326285714Y-94247676D01*
X326285714Y-94247676D02*
X326190476Y-94342914D01*
X326190476Y-94342914D02*
X326095238Y-94390533D01*
X299516666Y-100334819D02*
X299516666Y-101049104D01*
X299516666Y-101049104D02*
X299469047Y-101191961D01*
X299469047Y-101191961D02*
X299373809Y-101287200D01*
X299373809Y-101287200D02*
X299230952Y-101334819D01*
X299230952Y-101334819D02*
X299135714Y-101334819D01*
X299897619Y-100334819D02*
X300516666Y-100334819D01*
X300516666Y-100334819D02*
X300183333Y-100715771D01*
X300183333Y-100715771D02*
X300326190Y-100715771D01*
X300326190Y-100715771D02*
X300421428Y-100763390D01*
X300421428Y-100763390D02*
X300469047Y-100811009D01*
X300469047Y-100811009D02*
X300516666Y-100906247D01*
X300516666Y-100906247D02*
X300516666Y-101144342D01*
X300516666Y-101144342D02*
X300469047Y-101239580D01*
X300469047Y-101239580D02*
X300421428Y-101287200D01*
X300421428Y-101287200D02*
X300326190Y-101334819D01*
X300326190Y-101334819D02*
X300040476Y-101334819D01*
X300040476Y-101334819D02*
X299945238Y-101287200D01*
X299945238Y-101287200D02*
X299897619Y-101239580D01*
X274006666Y-82984819D02*
X274006666Y-83699104D01*
X274006666Y-83699104D02*
X273959047Y-83841961D01*
X273959047Y-83841961D02*
X273863809Y-83937200D01*
X273863809Y-83937200D02*
X273720952Y-83984819D01*
X273720952Y-83984819D02*
X273625714Y-83984819D01*
X274387619Y-82984819D02*
X275054285Y-82984819D01*
X275054285Y-82984819D02*
X274625714Y-83984819D01*
D11*
X192930000Y-67130000D02*
X243850000Y-67130000D01*
X192930000Y-72330000D02*
X192930000Y-67130000D01*
X192930000Y-72330000D02*
X241250000Y-72330000D01*
X241250000Y-69730000D02*
X243850000Y-69730000D01*
X241250000Y-72330000D02*
X241250000Y-69730000D01*
X242520000Y-72330000D02*
X243850000Y-72330000D01*
X243850000Y-69730000D02*
X243850000Y-67130000D01*
X243850000Y-72330000D02*
X243850000Y-71000000D01*
X283390000Y-81460000D02*
X283390000Y-79150000D01*
X283390000Y-81460000D02*
X286350000Y-81460000D01*
X283500000Y-63640000D02*
X286350000Y-63640000D01*
X299310000Y-63640000D02*
X296350000Y-63640000D01*
X299310000Y-63640000D02*
X299310000Y-65950000D01*
X299310000Y-81460000D02*
X296350000Y-81460000D01*
X299310000Y-81460000D02*
X299310000Y-79150000D01*
X282940000Y-65910000D02*
X282700000Y-65580000D01*
X283180000Y-65580000D01*
X282940000Y-65910000D01*
G36*
X282940000Y-65910000D02*
G01*
X282700000Y-65580000D01*
X283180000Y-65580000D01*
X282940000Y-65910000D01*
G37*
X353905000Y-84375000D02*
X353905000Y-85275000D01*
X353905000Y-87975000D02*
X353905000Y-90705000D01*
X353905000Y-90705000D02*
X363095000Y-90705000D01*
X354025000Y-81295000D02*
X362975000Y-81295000D01*
X363095000Y-84375000D02*
X363095000Y-85275000D01*
X363095000Y-87975000D02*
X363095000Y-90705000D01*
X211815000Y-110310000D02*
X211815000Y-109500000D01*
X211980000Y-100054102D02*
X211980000Y-99690000D01*
X211980000Y-101054102D02*
X211980000Y-100945898D01*
X211980000Y-102054102D02*
X211980000Y-101945898D01*
X211980000Y-103054102D02*
X211980000Y-102945898D01*
X211980000Y-104054102D02*
X211980000Y-103945898D01*
X211980000Y-105054102D02*
X211980000Y-104945898D01*
X211980000Y-106054102D02*
X211980000Y-105945898D01*
X211980000Y-107054102D02*
X211980000Y-106945898D01*
X211980000Y-108054102D02*
X211980000Y-107945898D01*
X212500000Y-110310000D02*
X211815000Y-110310000D01*
X213600000Y-99690000D02*
X211980000Y-99690000D01*
X213600000Y-109000000D02*
X213185000Y-109000000D01*
X213600000Y-109000000D02*
X213600000Y-99690000D01*
X221000000Y-101340000D02*
X218800000Y-101340000D01*
X221000000Y-101340000D02*
X223200000Y-101340000D01*
X221000000Y-108110000D02*
X218800000Y-108110000D01*
X221000000Y-108110000D02*
X223200000Y-108110000D01*
X217140000Y-101800000D02*
X216810000Y-102040000D01*
X216810000Y-101560000D01*
X217140000Y-101800000D01*
G36*
X217140000Y-101800000D02*
G01*
X216810000Y-102040000D01*
X216810000Y-101560000D01*
X217140000Y-101800000D01*
G37*
X337240000Y-122840000D02*
X337240000Y-125160000D01*
X337240000Y-125160000D02*
X341150000Y-125160000D01*
X341150000Y-122840000D02*
X337240000Y-122840000D01*
X309865000Y-81590000D02*
X309865000Y-80780000D01*
X310030000Y-66334102D02*
X310030000Y-65970000D01*
X310030000Y-67334102D02*
X310030000Y-67225898D01*
X310030000Y-68334102D02*
X310030000Y-68225898D01*
X310030000Y-69334102D02*
X310030000Y-69225898D01*
X310030000Y-70334102D02*
X310030000Y-70225898D01*
X310030000Y-71334102D02*
X310030000Y-71225898D01*
X310030000Y-72334102D02*
X310030000Y-72225898D01*
X310030000Y-73334102D02*
X310030000Y-73225898D01*
X310030000Y-74334102D02*
X310030000Y-74225898D01*
X310030000Y-75334102D02*
X310030000Y-75225898D01*
X310030000Y-76334102D02*
X310030000Y-76225898D01*
X310030000Y-77334102D02*
X310030000Y-77225898D01*
X310030000Y-78334102D02*
X310030000Y-78225898D01*
X310030000Y-79334102D02*
X310030000Y-79225898D01*
X310550000Y-81590000D02*
X309865000Y-81590000D01*
X311650000Y-65970000D02*
X310030000Y-65970000D01*
X311650000Y-80280000D02*
X311235000Y-80280000D01*
X311650000Y-80280000D02*
X311650000Y-65970000D01*
X336300000Y-59800000D02*
X336300000Y-60600000D01*
X336300000Y-67400000D02*
X336300000Y-70200000D01*
X336300000Y-85000000D02*
X336300000Y-86200000D01*
X339400000Y-88200000D02*
X345700000Y-88200000D01*
X345700000Y-57800000D02*
X339400000Y-57800000D01*
X345700000Y-61000000D02*
X345700000Y-57800000D01*
X345700000Y-70600000D02*
X345700000Y-67800000D01*
X345700000Y-88200000D02*
X345700000Y-85400000D01*
X275640000Y-98140000D02*
X275640000Y-101850000D01*
X275640000Y-98140000D02*
X291360000Y-98140000D01*
X275640000Y-102550000D02*
X275640000Y-113860000D01*
X275640000Y-113860000D02*
X291360000Y-113860000D01*
X291360000Y-98140000D02*
X291360000Y-113860000D01*
X275640000Y-102200000D02*
X275310000Y-102440000D01*
X275310000Y-101960000D01*
X275640000Y-102200000D01*
G36*
X275640000Y-102200000D02*
G01*
X275310000Y-102440000D01*
X275310000Y-101960000D01*
X275640000Y-102200000D01*
G37*
X228815000Y-110810000D02*
X228815000Y-110000000D01*
X228980000Y-100554102D02*
X228980000Y-100190000D01*
X228980000Y-101554102D02*
X228980000Y-101445898D01*
X228980000Y-102554102D02*
X228980000Y-102445898D01*
X228980000Y-103554102D02*
X228980000Y-103445898D01*
X228980000Y-104554102D02*
X228980000Y-104445898D01*
X228980000Y-105554102D02*
X228980000Y-105445898D01*
X228980000Y-106554102D02*
X228980000Y-106445898D01*
X228980000Y-107554102D02*
X228980000Y-107445898D01*
X228980000Y-108554102D02*
X228980000Y-108445898D01*
X229500000Y-110810000D02*
X228815000Y-110810000D01*
X230600000Y-100190000D02*
X228980000Y-100190000D01*
X230600000Y-109500000D02*
X230185000Y-109500000D01*
X230600000Y-109500000D02*
X230600000Y-100190000D01*
X322483000Y-101483000D02*
X322483000Y-119517000D01*
X322483000Y-119517000D02*
X324388000Y-119517000D01*
X324388000Y-101483000D02*
X322483000Y-101483000D01*
X338612000Y-101483000D02*
X340517000Y-101483000D01*
X340517000Y-101483000D02*
X340517000Y-119517000D01*
X340517000Y-119517000D02*
X338612000Y-119517000D01*
X324375000Y-101225000D02*
X323875000Y-101225000D01*
X324375000Y-100725000D01*
X324375000Y-101225000D01*
G36*
X324375000Y-101225000D02*
G01*
X323875000Y-101225000D01*
X324375000Y-100725000D01*
X324375000Y-101225000D01*
G37*
X323190000Y-95340000D02*
X323190000Y-97660000D01*
X323190000Y-97660000D02*
X327100000Y-97660000D01*
X327100000Y-95340000D02*
X323190000Y-95340000D01*
X298890000Y-102320000D02*
X298890000Y-103875000D01*
X298890000Y-102320000D02*
X300810000Y-102320000D01*
X298890000Y-105045000D02*
X298890000Y-106415000D01*
X298890000Y-107585000D02*
X298890000Y-107870000D01*
X298890000Y-107870000D02*
X300810000Y-107870000D01*
X300810000Y-102320000D02*
X300810000Y-102605000D01*
X300810000Y-102605000D02*
X302040000Y-102605000D01*
X300810000Y-103775000D02*
X300810000Y-105145000D01*
X300810000Y-106315000D02*
X300810000Y-107870000D01*
X273365000Y-82090000D02*
X273365000Y-81280000D01*
X273530000Y-64834102D02*
X273530000Y-64470000D01*
X273530000Y-65834102D02*
X273530000Y-65725898D01*
X273530000Y-66834102D02*
X273530000Y-66725898D01*
X273530000Y-67834102D02*
X273530000Y-67725898D01*
X273530000Y-68834102D02*
X273530000Y-68725898D01*
X273530000Y-69834102D02*
X273530000Y-69725898D01*
X273530000Y-70834102D02*
X273530000Y-70725898D01*
X273530000Y-71834102D02*
X273530000Y-71725898D01*
X273530000Y-72834102D02*
X273530000Y-72725898D01*
X273530000Y-73834102D02*
X273530000Y-73725898D01*
X273530000Y-74834102D02*
X273530000Y-74725898D01*
X273530000Y-75834102D02*
X273530000Y-75725898D01*
X273530000Y-76834102D02*
X273530000Y-76725898D01*
X273530000Y-77834102D02*
X273530000Y-77725898D01*
X273530000Y-78834102D02*
X273530000Y-78725898D01*
X273530000Y-79834102D02*
X273530000Y-79725898D01*
X274050000Y-82090000D02*
X273365000Y-82090000D01*
X275150000Y-64470000D02*
X273530000Y-64470000D01*
X275150000Y-80780000D02*
X274735000Y-80780000D01*
X275150000Y-80780000D02*
X275150000Y-64470000D01*
M02*
