M48
; DRILL file {KiCad 8.0.7-1.fc41} date 2024-12-22T23:08:05-0500
; FORMAT={-:-/ absolute / inch / decimal}
; #@! TF.CreationDate,2024-12-22T23:08:05-05:00
; #@! TF.GenerationSoftware,Kicad,Pcbnew,8.0.7-1.fc41
; #@! TF.FileFunction,Plated,1,2,PTH
FMAT,2
INCH
; #@! TA.AperFunction,Plated,PTH,ComponentDrill
T1C0.0157
; #@! TA.AperFunction,Plated,PTH,ComponentDrill
T2C0.0197
; #@! TA.AperFunction,Plated,PTH,ViaDrill
T3C0.0236
; #@! TA.AperFunction,Plated,PTH,ComponentDrill
T4C0.0236
; #@! TA.AperFunction,Plated,PTH,ComponentDrill
T5C0.0394
%
G90
G05
T1
X13.997Y-3.2274
X13.997Y-3.2805
X14.0305Y-3.2274
X14.0305Y-3.2805
X14.064Y-3.2274
X14.064Y-3.2805
X14.0974Y-3.2274
X14.0974Y-3.2805
X14.1309Y-3.2274
X14.1309Y-3.2805
X14.1644Y-3.2274
X14.1644Y-3.2805
X14.1978Y-3.2274
X14.1978Y-3.2805
X14.2313Y-3.2274
X14.2313Y-3.2805
T2
X8.3661Y-3.9567
X8.3661Y-3.9961
X8.3661Y-4.0354
X8.3661Y-4.0748
X8.3661Y-4.1142
X8.3661Y-4.1535
X8.3661Y-4.1929
X8.3661Y-4.2323
X8.3661Y-4.2717
X8.3661Y-4.311
X9.0354Y-3.9764
X9.0354Y-4.0157
X9.0354Y-4.0551
X9.0354Y-4.0945
X9.0354Y-4.1339
X9.0354Y-4.1732
X9.0354Y-4.2126
X9.0354Y-4.252
X9.0354Y-4.2913
X9.0354Y-4.3307
X10.7894Y-2.5701
X10.7894Y-2.6094
X10.7894Y-2.6488
X10.7894Y-2.6882
X10.7894Y-2.7276
X10.7894Y-2.7669
X10.7894Y-2.8063
X10.7894Y-2.8457
X10.7894Y-2.885
X10.7894Y-2.9244
X10.7894Y-2.9638
X10.7894Y-3.0031
X10.7894Y-3.0425
X10.7894Y-3.0819
X10.7894Y-3.1213
X10.7894Y-3.1606
X10.7894Y-3.2
X12.2264Y-2.6291
X12.2264Y-2.6685
X12.2264Y-2.7079
X12.2264Y-2.7472
X12.2264Y-2.7866
X12.2264Y-2.826
X12.2264Y-2.8654
X12.2264Y-2.9047
X12.2264Y-2.9441
X12.2264Y-2.9835
X12.2264Y-3.0228
X12.2264Y-3.0622
X12.2264Y-3.1016
X12.2264Y-3.1409
X12.2264Y-3.1803
T3
X8.4112Y-4.0199
X8.4154Y-4.1077
X8.4154Y-4.2323
X8.4941Y-4.2224
X8.5039Y-4.0374
X8.5148Y-4.1427
X8.563Y-3.9075
X8.6421Y-4.0747
X8.7555Y-4.0026
X8.7795Y-3.9665
X8.9173Y-3.9764
X8.9173Y-4.3602
X10.3617Y-2.5664
X10.5315Y-2.874
X10.6299Y-2.3228
X10.6693Y-2.9331
X10.689Y-2.3228
X10.689Y-2.9933
X10.8465Y-2.8937
X10.8563Y-2.8285
X10.8858Y-2.5984
X10.9154Y-2.815
X10.9706Y-3.0141
X11.0728Y-3.0512
X11.0743Y-3.1604
X11.0869Y-2.8979
X11.1175Y-2.9285
X11.1504Y-3.3969
X11.1614Y-3.1102
X11.2008Y-3.3465
X11.4173Y-2.4016
X11.4764Y-3.2185
X11.4961Y-2.393
X11.5686Y-2.5492
X11.5748Y-2.4016
X11.5752Y-2.6083
X11.6181Y-2.4016
X11.6614Y-2.4016
X11.6661Y-3.1031
X11.6732Y-3.189
X11.7323Y-2.9724
X11.7323Y-3.0157
X11.7795Y-2.9213
X11.7913Y-2.7953
X11.7933Y-2.6575
X11.8935Y-3.2714
X12.0079Y-2.9724
X12.0177Y-3.189
X12.0866Y-3.0709
X12.1063Y-2.7559
X12.1063Y-3.1693
X12.302Y-3.1287
X12.3031Y-2.6772
X12.3169Y-3.0709
X12.3228Y-2.6181
X12.3929Y-2.7276
T5
X7.648Y-2.6953
X7.648Y-2.7953
X7.748Y-2.6953
X7.748Y-2.7953
X7.848Y-2.6953
X7.848Y-2.7953
X7.948Y-2.6953
X7.948Y-2.7953
X8.048Y-2.6953
X8.048Y-2.7953
X8.148Y-2.6953
X8.148Y-2.7953
X8.248Y-2.6953
X8.248Y-2.7953
X8.348Y-2.6953
X8.348Y-2.7953
X8.448Y-2.6953
X8.448Y-2.7953
X8.548Y-2.6953
X8.548Y-2.7953
X8.648Y-2.6953
X8.648Y-2.7953
X8.748Y-2.6953
X8.748Y-2.7953
X8.848Y-2.6953
X8.848Y-2.7953
X8.948Y-2.6953
X8.948Y-2.7953
X9.048Y-2.6953
X9.048Y-2.7953
X9.148Y-2.6953
X9.148Y-2.7953
X9.248Y-2.6953
X9.248Y-2.7953
X9.348Y-2.6953
X9.348Y-2.7953
X9.448Y-2.6953
X9.448Y-2.7953
X9.548Y-2.6953
X9.548Y-2.7953
T4
G00X13.9439Y-3.2364
M15
G01X13.9439Y-3.2955
M16
G05
G00X13.9439Y-3.3833
M15
G01X13.9439Y-3.4148
M16
G05
G00X14.2844Y-3.2364
M15
G01X14.2844Y-3.2955
M16
G05
G00X14.2844Y-3.3833
M15
G01X14.2844Y-3.4148
M16
G05
M30
